<svg width="119" height="88" viewBox="0 0 119 88" fill="none" xmlns="http://www.w3.org/2000/svg">
<path d="M6.994 43.67C6.45133 43.67 5.93067 43.5453 5.432 43.296C4.948 43.032 4.508 42.6873 4.112 42.262C3.73067 41.8367 3.43 41.3673 3.21 40.854C2.99 40.326 2.88 39.798 2.88 39.27C2.88 38.5073 3.11467 38.126 3.584 38.126C3.74533 38.126 3.892 38.17 4.024 38.258C4.17067 38.346 4.27333 38.522 4.332 38.786C4.39067 39.0353 4.47867 39.3433 4.596 39.71C4.728 40.0767 4.89667 40.4433 5.102 40.81C5.322 41.162 5.586 41.4627 5.894 41.712C6.202 41.9467 6.56867 42.064 6.994 42.064C7.41933 42.064 7.77867 41.91 8.072 41.602C8.38 41.294 8.622 40.9273 8.798 40.502C8.98867 40.0767 9.128 39.7027 9.216 39.38C9.59733 38.0307 9.854 36.6227 9.986 35.156C10.118 33.6893 10.184 32.2887 10.184 30.954C10.184 30.7487 10.14 30.58 10.052 30.448C9.964 30.316 9.81 30.25 9.59 30.25H8.05C7.94733 30.25 7.84467 30.184 7.742 30.052C7.63933 29.92 7.588 29.7513 7.588 29.546C7.588 29.2673 7.62467 29.084 7.698 28.996C7.786 28.908 7.86667 28.864 7.94 28.864H8.05C8.24067 28.864 8.534 28.8713 8.93 28.886C9.34067 28.886 9.80267 28.8933 10.316 28.908C10.8293 28.908 11.3427 28.9153 11.856 28.93C12.384 28.9447 12.8607 28.9593 13.286 28.974C13.7113 28.974 14.0267 28.974 14.232 28.974C14.3933 29.018 14.5033 29.0767 14.562 29.15C14.6207 29.2087 14.65 29.2967 14.65 29.414C14.65 29.7807 14.518 30.03 14.254 30.162C14.0047 30.294 13.6893 30.36 13.308 30.36C13.132 30.36 12.9487 30.3527 12.758 30.338C12.582 30.3087 12.406 30.2867 12.23 30.272C11.9513 30.272 11.812 30.4187 11.812 30.712C11.812 30.932 11.8047 31.2767 11.79 31.746C11.79 32.2153 11.7827 32.7213 11.768 33.264C11.7533 33.792 11.7387 34.2833 11.724 34.738C11.724 35.178 11.7167 35.486 11.702 35.662C11.6727 36.2633 11.614 36.9233 11.526 37.642C11.438 38.3607 11.2987 39.0793 11.108 39.798C10.9173 40.502 10.6533 41.1473 10.316 41.734C9.97867 42.3207 9.53867 42.79 8.996 43.142C8.45333 43.494 7.786 43.67 6.994 43.67ZM19.7597 43.78C19.0117 43.78 18.425 43.5747 17.9997 43.164C17.5743 42.7387 17.2663 42.196 17.0757 41.536C16.8997 40.8613 16.8117 40.15 16.8117 39.402C16.8117 38.8887 16.819 38.478 16.8337 38.17C16.8483 37.8473 16.8777 37.5173 16.9217 37.18C16.9803 36.8427 17.061 36.3807 17.1637 35.794C17.2223 35.5007 17.281 35.2073 17.3397 34.914C17.3983 34.606 17.479 34.3127 17.5817 34.034C17.699 33.6967 17.8237 33.462 17.9557 33.33C18.1023 33.1833 18.227 33.11 18.3297 33.11C18.6083 33.11 18.8137 33.1907 18.9457 33.352C19.0923 33.4987 19.1657 33.6893 19.1657 33.924C19.1657 34.2467 19.1217 34.5473 19.0337 34.826C18.9457 35.1047 18.8723 35.3687 18.8137 35.618C18.711 36.278 18.623 36.806 18.5497 37.202C18.4763 37.5833 18.4177 37.9353 18.3737 38.258C18.3443 38.566 18.3297 38.9473 18.3297 39.402C18.3297 39.622 18.3443 39.886 18.3737 40.194C18.4177 40.502 18.491 40.8027 18.5937 41.096C18.6963 41.3893 18.8503 41.6387 19.0557 41.844C19.261 42.0347 19.5323 42.13 19.8697 42.13C20.2217 42.13 20.5517 42.0053 20.8597 41.756C21.1823 41.492 21.4097 41.2793 21.5417 41.118C22.539 39.8567 23.4263 38.6247 24.2037 37.422C24.981 36.2193 25.751 34.9067 26.5137 33.484C26.6163 33.3227 26.697 33.22 26.7557 33.176C26.829 33.132 26.917 33.11 27.0197 33.11C27.357 33.11 27.5917 33.1687 27.7237 33.286C27.8557 33.4033 27.9217 33.6013 27.9217 33.88C27.9217 34.056 27.8997 34.2687 27.8557 34.518C27.6357 35.618 27.5257 36.7107 27.5257 37.796C27.5257 38.5293 27.5917 39.2113 27.7237 39.842C27.8557 40.4727 28.0683 40.9933 28.3617 41.404C28.5817 41.6827 28.6917 41.9247 28.6917 42.13C28.6917 42.3793 28.6183 42.5773 28.4717 42.724C28.3397 42.8707 28.171 42.944 27.9657 42.944C27.4083 42.944 26.9683 42.504 26.6457 41.624C26.543 41.316 26.4257 40.9273 26.2937 40.458C26.1763 39.974 26.0663 39.49 25.9637 39.006C25.861 38.522 25.795 38.1187 25.7657 37.796C25.575 38.104 25.399 38.412 25.2377 38.72C25.091 39.0133 24.9003 39.3287 24.6657 39.666C24.5043 39.9007 24.3137 40.172 24.0937 40.48C23.8737 40.7733 23.639 41.0813 23.3897 41.404C22.8763 42.0347 22.3117 42.592 21.6957 43.076C21.0797 43.5453 20.4343 43.78 19.7597 43.78ZM32.9887 44.11C32.7101 44.11 32.4974 44 32.3507 43.78C32.2041 43.56 32.1014 43.2887 32.0427 42.966C31.9841 42.6433 31.9474 42.3207 31.9327 41.998C31.9327 41.6753 31.9327 41.4187 31.9327 41.228C31.9327 41.1107 31.9254 40.9787 31.9107 40.832C31.9107 40.6853 31.9107 40.5387 31.9107 40.392C31.9107 39.6587 31.9327 38.7713 31.9767 37.73C32.0207 36.674 32.0794 35.5667 32.1527 34.408C32.2407 33.2347 32.3361 32.0907 32.4387 30.976C32.5561 29.8613 32.6807 28.8713 32.8127 28.006C32.9301 27.5807 33.0841 27.2727 33.2747 27.082C33.4801 26.8913 33.6781 26.796 33.8687 26.796C34.0447 26.796 34.1987 26.8767 34.3307 27.038C34.4774 27.1993 34.5507 27.4267 34.5507 27.72C34.5507 27.7787 34.5507 27.83 34.5507 27.874C34.5507 27.918 34.5434 27.9693 34.5287 28.028C34.1621 29.8027 33.9274 31.658 33.8247 33.594C33.7221 35.53 33.6707 37.3927 33.6707 39.182C33.6707 39.9153 33.6781 40.568 33.6927 41.14C33.7221 41.6973 33.7367 42.2767 33.7367 42.878C33.7367 43.2007 33.6634 43.4867 33.5167 43.736C33.3847 43.9853 33.2087 44.11 32.9887 44.11ZM39.275 29.612C38.791 29.612 38.4024 29.502 38.109 29.282C37.8304 29.0473 37.691 28.7467 37.691 28.38C37.691 28.0427 37.8524 27.786 38.175 27.61C38.4977 27.4193 38.9084 27.324 39.407 27.324C39.9057 27.324 40.2944 27.4413 40.573 27.676C40.8517 27.896 40.991 28.204 40.991 28.6C40.991 28.9227 40.8297 29.172 40.507 29.348C40.199 29.524 39.7884 29.612 39.275 29.612ZM38.131 43.67C37.9257 43.67 37.7644 43.538 37.647 43.274C37.5444 43.01 37.471 42.6727 37.427 42.262C37.3977 41.8513 37.383 41.426 37.383 40.986C37.383 40.7807 37.383 40.5753 37.383 40.37C37.3977 40.15 37.405 39.9447 37.405 39.754C37.405 39.6953 37.427 39.5047 37.471 39.182C37.515 38.8447 37.5664 38.456 37.625 38.016C37.6837 37.576 37.7424 37.1433 37.801 36.718C37.8744 36.278 37.933 35.9333 37.977 35.684C38.021 35.4933 38.0724 35.244 38.131 34.936C38.1897 34.6133 38.2924 34.3273 38.439 34.078C38.6004 33.814 38.8277 33.682 39.121 33.682C39.4584 33.682 39.693 33.748 39.825 33.88C39.9717 33.9973 40.045 34.188 40.045 34.452C40.045 34.5253 40.0377 34.5987 40.023 34.672C40.023 34.7453 40.0157 34.826 40.001 34.914C39.9277 35.3833 39.8324 35.97 39.715 36.674C39.6124 37.3633 39.517 38.0893 39.429 38.852C39.3557 39.6 39.3337 40.3113 39.363 40.986C39.3777 41.1473 39.3924 41.338 39.407 41.558C39.4364 41.7633 39.451 41.9687 39.451 42.174C39.451 42.5553 39.3704 42.9 39.209 43.208C39.0477 43.516 38.6884 43.67 38.131 43.67ZM46.4849 44.22C45.8249 44.22 45.2089 44.0733 44.6369 43.78C44.0795 43.4867 43.6102 43.0907 43.2289 42.592C42.8475 42.0933 42.5982 41.536 42.4809 40.92V39.754C42.4809 38.918 42.6349 38.0747 42.9429 37.224C43.2509 36.3733 43.6762 35.5887 44.2189 34.87C44.7762 34.1513 45.4289 33.5793 46.1769 33.154C46.9395 32.714 47.7609 32.494 48.6409 32.494C49.1982 32.494 49.7335 32.5893 50.2469 32.78C50.7749 32.9707 51.2442 33.1907 51.6549 33.44C51.7429 32.824 51.8529 32.3987 51.9849 32.164C52.1169 31.9293 52.3442 31.812 52.6669 31.812C52.9162 31.812 53.0922 31.8927 53.1949 32.054C53.2975 32.2007 53.3489 32.4647 53.3489 32.846C53.3489 33.726 53.3269 34.5913 53.2829 35.442C53.2535 36.278 53.2389 37.136 53.2389 38.016C53.2389 38.72 53.2755 39.446 53.3489 40.194C53.4369 40.942 53.4809 41.6607 53.4809 42.35C53.4809 42.57 53.4809 42.79 53.4809 43.01C53.4955 43.23 53.4589 43.4133 53.3709 43.56C53.2975 43.692 53.1362 43.758 52.8869 43.758C52.5349 43.758 52.2709 43.5967 52.0949 43.274C51.9335 42.9367 51.8235 42.5333 51.7649 42.064C51.7062 41.5947 51.6475 41.1547 51.5889 40.744C51.4422 41.14 51.1929 41.5287 50.8409 41.91C50.5035 42.2913 50.1589 42.6213 49.8069 42.9C49.4695 43.164 49.2055 43.3547 49.0149 43.472C48.8389 43.5747 48.8389 43.56 49.0149 43.428C48.6922 43.6627 48.2889 43.8533 47.8049 44C47.3355 44.1467 46.8955 44.22 46.4849 44.22ZM46.2649 42.834C46.9249 42.834 47.5409 42.6433 48.1129 42.262C48.6849 41.8807 49.1835 41.3893 49.6089 40.788C50.0489 40.1867 50.3862 39.556 50.6209 38.896C50.8702 38.236 50.9949 37.6273 50.9949 37.07C50.9949 36.7913 50.9582 36.476 50.8849 36.124C50.8262 35.7573 50.7089 35.4053 50.5329 35.068C50.3569 34.7307 50.1149 34.452 49.8069 34.232C49.5135 34.012 49.1249 33.902 48.6409 33.902C48.0102 33.902 47.4089 34.1073 46.8369 34.518C46.2649 34.914 45.7515 35.4273 45.2969 36.058C44.8569 36.674 44.5122 37.312 44.2629 37.972C44.0135 38.632 43.8889 39.226 43.8889 39.754C43.8889 40.15 43.9549 40.59 44.0869 41.074C44.2335 41.558 44.4755 41.976 44.8129 42.328C45.1649 42.6653 45.6489 42.834 46.2649 42.834Z" fill="black"/>
<path d="M116.698 2C114.176 5.15318 114.638 9.73136 112.958 13.4285C111.053 17.6189 108.344 22.0764 106.932 26.3115C102.455 39.7417 85.4514 50.3887 74.6206 57.9996C63.864 65.5583 48.0024 72.0186 35.3482 74.8306C25.6705 76.9812 16.3849 80.5449 6.36136 80.5449C-2.69134 80.5449 7.48066 72.984 9.68601 70.7787C18.608 61.8567 8.21125 76.1925 5.4263 77.7397C-3.48424 82.69 7.26025 82.415 11.9717 82.415C19.46 82.415 25.4804 86.1552 32.543 86.1552" stroke="black" stroke-width="3" stroke-linecap="round"/>
</svg>
