<svg width="190" height="133" viewBox="0 0 190 133" fill="none" xmlns="http://www.w3.org/2000/svg">
<path d="M1.50792 85.1885C11.1419 87.5002 19.8557 91.7903 30.7425 93.0054C59.0381 96.1635 85.8685 101.365 108.607 79.938C120.836 68.4148 127.355 51.2358 134.48 36.2736C141.006 22.5665 137.542 29.4853 128.679 31.5782C125.251 32.3876 106.817 38.6039 113.988 36.2635C121.473 33.8203 139.7 30.3001 140.735 21.0327C142.212 7.79253 142.603 17.7908 142.926 26.3373C143.309 36.4868 144.845 45.4085 143.716 55.5206" stroke="black" stroke-width="3" stroke-linecap="round"/>
<path d="M2.892 124.89C2.59867 124.89 2.40067 124.795 2.298 124.604C2.21 124.413 2.166 124.186 2.166 123.922C2.18067 123.643 2.188 123.387 2.188 123.152C2.188 121.671 2.33467 120.211 2.628 118.774C2.92133 117.337 3.266 115.907 3.662 114.484C3.69133 114.396 3.74267 114.235 3.816 114C3.88933 113.751 3.97 113.487 4.058 113.208C4.146 112.929 4.22667 112.673 4.3 112.438C4.388 112.203 4.44667 112.042 4.476 111.954C4.63733 111.455 4.828 111.096 5.048 110.876C5.268 110.641 5.58333 110.524 5.994 110.524C6.36067 110.524 6.66867 110.656 6.918 110.92C7.182 111.169 7.39467 111.477 7.556 111.844C7.732 112.196 7.87133 112.533 7.974 112.856C8.22333 113.619 8.48 114.396 8.744 115.188C9.008 115.965 9.25733 116.735 9.492 117.498C9.60933 117.879 9.77067 118.07 9.976 118.07C10.24 118.07 10.4893 117.755 10.724 117.124C10.8413 116.801 10.9807 116.413 11.142 115.958C11.318 115.489 11.494 115.019 11.67 114.55C11.846 114.066 12 113.633 12.132 113.252C12.2787 112.871 12.3813 112.599 12.44 112.438C12.6747 111.837 12.9313 111.353 13.21 110.986C13.5033 110.605 13.914 110.414 14.442 110.414C14.838 110.414 15.1607 110.553 15.41 110.832C15.6593 111.096 15.8647 111.426 16.026 111.822C16.1873 112.203 16.3193 112.577 16.422 112.944C16.818 114.44 17.1187 115.958 17.324 117.498C17.544 119.038 17.654 120.571 17.654 122.096V122.954C17.5953 123.145 17.5147 123.269 17.412 123.328C17.3093 123.372 17.126 123.394 16.862 123.394C16.4953 123.394 16.2313 123.152 16.07 122.668C15.982 122.404 15.9233 122.133 15.894 121.854C15.8647 121.575 15.8353 121.297 15.806 121.018C15.6593 119.522 15.5273 118.327 15.41 117.432C15.3073 116.523 15.212 115.819 15.124 115.32C15.0507 114.821 14.9847 114.44 14.926 114.176C14.8673 113.897 14.8087 113.641 14.75 113.406C14.706 113.142 14.5813 113.01 14.376 113.01C14.156 113.01 13.98 113.142 13.848 113.406C13.76 113.67 13.628 114.051 13.452 114.55C13.2907 115.049 13.1073 115.577 12.902 116.134C12.6967 116.691 12.5133 117.197 12.352 117.652C12.1907 118.107 12.0807 118.422 12.022 118.598C11.9487 118.789 11.846 119.053 11.714 119.39C11.582 119.713 11.4207 120.035 11.23 120.358C11.054 120.681 10.8487 120.959 10.614 121.194C10.394 121.414 10.1593 121.524 9.91 121.524C9.67533 121.524 9.46267 121.429 9.272 121.238C9.08133 121.033 8.92 120.798 8.788 120.534C8.67067 120.27 8.57533 120.05 8.502 119.874L6.676 114.484C6.66133 114.411 6.632 114.308 6.588 114.176C6.544 114.029 6.47067 113.897 6.368 113.78C6.28 113.648 6.148 113.582 5.972 113.582C5.81067 113.582 5.67867 113.655 5.576 113.802C5.488 113.949 5.422 114.117 5.378 114.308C5.334 114.499 5.30467 114.653 5.29 114.77C5.26067 114.917 5.21667 115.107 5.158 115.342C5.09933 115.562 5.04067 115.797 4.982 116.046C4.92333 116.266 4.872 116.479 4.828 116.684C4.79867 116.875 4.76933 117.021 4.74 117.124C4.72533 117.227 4.68867 117.41 4.63 117.674C4.586 117.938 4.542 118.217 4.498 118.51C4.38067 119.273 4.27067 120.021 4.168 120.754C4.08 121.473 3.992 122.257 3.904 123.108C3.88933 123.357 3.85267 123.621 3.794 123.9C3.73533 124.179 3.63267 124.413 3.486 124.604C3.354 124.795 3.156 124.89 2.892 124.89ZM23.9575 125.22C23.2975 125.22 22.6815 125.073 22.1095 124.78C21.5522 124.487 21.0828 124.091 20.7015 123.592C20.3202 123.093 20.0708 122.536 19.9535 121.92V120.754C19.9535 119.918 20.1075 119.075 20.4155 118.224C20.7235 117.373 21.1488 116.589 21.6915 115.87C22.2488 115.151 22.9015 114.579 23.6495 114.154C24.4122 113.714 25.2335 113.494 26.1135 113.494C26.6708 113.494 27.2062 113.589 27.7195 113.78C28.2475 113.971 28.7168 114.191 29.1275 114.44C29.2155 113.824 29.3255 113.399 29.4575 113.164C29.5895 112.929 29.8168 112.812 30.1395 112.812C30.3888 112.812 30.5648 112.893 30.6675 113.054C30.7702 113.201 30.8215 113.465 30.8215 113.846C30.8215 114.726 30.7995 115.591 30.7555 116.442C30.7262 117.278 30.7115 118.136 30.7115 119.016C30.7115 119.72 30.7482 120.446 30.8215 121.194C30.9095 121.942 30.9535 122.661 30.9535 123.35C30.9535 123.57 30.9535 123.79 30.9535 124.01C30.9682 124.23 30.9315 124.413 30.8435 124.56C30.7702 124.692 30.6088 124.758 30.3595 124.758C30.0075 124.758 29.7435 124.597 29.5675 124.274C29.4062 123.937 29.2962 123.533 29.2375 123.064C29.1788 122.595 29.1202 122.155 29.0615 121.744C28.9148 122.14 28.6655 122.529 28.3135 122.91C27.9762 123.291 27.6315 123.621 27.2795 123.9C26.9422 124.164 26.6782 124.355 26.4875 124.472C26.3115 124.575 26.3115 124.56 26.4875 124.428C26.1648 124.663 25.7615 124.853 25.2775 125C24.8082 125.147 24.3682 125.22 23.9575 125.22ZM23.7375 123.834C24.3975 123.834 25.0135 123.643 25.5855 123.262C26.1575 122.881 26.6562 122.389 27.0815 121.788C27.5215 121.187 27.8588 120.556 28.0935 119.896C28.3428 119.236 28.4675 118.627 28.4675 118.07C28.4675 117.791 28.4308 117.476 28.3575 117.124C28.2988 116.757 28.1815 116.405 28.0055 116.068C27.8295 115.731 27.5875 115.452 27.2795 115.232C26.9862 115.012 26.5975 114.902 26.1135 114.902C25.4828 114.902 24.8815 115.107 24.3095 115.518C23.7375 115.914 23.2242 116.427 22.7695 117.058C22.3295 117.674 21.9848 118.312 21.7355 118.972C21.4862 119.632 21.3615 120.226 21.3615 120.754C21.3615 121.15 21.4275 121.59 21.5595 122.074C21.7062 122.558 21.9482 122.976 22.2855 123.328C22.6375 123.665 23.1215 123.834 23.7375 123.834ZM36.5498 130.764C36.5058 130.764 36.4398 130.705 36.3518 130.588C36.2638 130.471 36.2198 130.295 36.2198 130.06C36.2198 129.855 36.2418 129.649 36.2858 129.444C36.3444 129.239 36.4178 129.033 36.5058 128.828C36.6084 128.608 36.7111 128.388 36.8138 128.168C36.9164 127.948 37.0191 127.728 37.1218 127.508C37.2098 127.288 37.3124 127.009 37.4298 126.672C37.5618 126.335 37.6864 125.99 37.8038 125.638C37.9211 125.301 38.0164 125.007 38.0898 124.758C38.1778 124.509 38.2218 124.369 38.2218 124.34V123.768C37.3124 123.768 36.5571 123.599 35.9558 123.262C35.3544 122.925 34.8778 122.477 34.5258 121.92C34.1738 121.363 33.9171 120.747 33.7558 120.072C33.5944 119.383 33.4844 118.686 33.4258 117.982C33.3818 117.263 33.3598 116.596 33.3598 115.98C33.3598 115.687 33.3671 115.401 33.3818 115.122C33.3964 114.843 33.4331 114.565 33.4918 114.286C33.5651 113.949 33.6531 113.729 33.7558 113.626C33.8731 113.509 33.9831 113.45 34.0858 113.45C34.4231 113.45 34.6578 113.582 34.7898 113.846C34.9364 114.095 35.0098 114.462 35.0098 114.946C35.0098 115.283 34.9878 115.606 34.9438 115.914C34.8998 116.207 34.8778 116.53 34.8778 116.882V117.102C34.8778 117.234 34.8998 117.491 34.9438 117.872C35.0024 118.239 35.0611 118.613 35.1198 118.994C35.1784 119.375 35.2224 119.661 35.2518 119.852C35.3251 120.175 35.4351 120.519 35.5818 120.886C35.7284 121.238 35.9338 121.539 36.1978 121.788C36.4764 122.037 36.8284 122.162 37.2538 122.162C37.8258 122.162 38.3318 121.957 38.7718 121.546C39.2264 121.121 39.6371 120.578 40.0038 119.918C40.3851 119.243 40.7298 118.539 41.0378 117.806C41.1551 117.557 41.2651 117.307 41.3678 117.058C41.4704 116.809 41.5731 116.567 41.6758 116.332C41.7931 116.097 41.9031 115.877 42.0058 115.672C42.1084 115.467 42.2184 115.269 42.3358 115.078C42.5704 114.697 42.7831 114.425 42.9738 114.264C43.1791 114.103 43.3771 114.022 43.5678 114.022C43.7584 114.022 43.8978 114.073 43.9858 114.176C44.0884 114.279 44.1398 114.455 44.1398 114.704C44.1398 115.159 44.0591 115.606 43.8978 116.046C43.7511 116.486 43.5604 116.926 43.3258 117.366C43.0764 117.821 42.8124 118.268 42.5338 118.708C42.2551 119.148 42.0131 119.588 41.8078 120.028C41.6904 120.292 41.5291 120.651 41.3238 121.106C41.1331 121.546 40.9278 122.008 40.7078 122.492C40.5024 122.961 40.3191 123.379 40.1578 123.746C40.0111 124.113 39.9231 124.34 39.8938 124.428C39.8791 124.501 39.8204 124.67 39.7178 124.934C39.6151 125.183 39.4978 125.484 39.3658 125.836C39.2484 126.188 39.1238 126.54 38.9918 126.892C38.8598 127.259 38.7424 127.567 38.6398 127.816C38.5518 128.08 38.4931 128.249 38.4638 128.322C38.3758 128.586 38.2511 128.909 38.0898 129.29C37.9284 129.671 37.7231 130.009 37.4738 130.302C37.2391 130.61 36.9311 130.764 36.5498 130.764ZM50.104 125.22C49.444 125.22 48.828 125.073 48.256 124.78C47.6987 124.487 47.2293 124.091 46.848 123.592C46.4667 123.093 46.2173 122.536 46.1 121.92V120.754C46.1 119.918 46.254 119.075 46.562 118.224C46.87 117.373 47.2953 116.589 47.838 115.87C48.3953 115.151 49.048 114.579 49.796 114.154C50.5587 113.714 51.38 113.494 52.26 113.494C52.8173 113.494 53.3527 113.589 53.866 113.78C54.394 113.971 54.8633 114.191 55.274 114.44C55.362 113.824 55.472 113.399 55.604 113.164C55.736 112.929 55.9633 112.812 56.286 112.812C56.5353 112.812 56.7113 112.893 56.814 113.054C56.9167 113.201 56.968 113.465 56.968 113.846C56.968 114.726 56.946 115.591 56.902 116.442C56.8727 117.278 56.858 118.136 56.858 119.016C56.858 119.72 56.8947 120.446 56.968 121.194C57.056 121.942 57.1 122.661 57.1 123.35C57.1 123.57 57.1 123.79 57.1 124.01C57.1147 124.23 57.078 124.413 56.99 124.56C56.9167 124.692 56.7553 124.758 56.506 124.758C56.154 124.758 55.89 124.597 55.714 124.274C55.5527 123.937 55.4427 123.533 55.384 123.064C55.3253 122.595 55.2667 122.155 55.208 121.744C55.0613 122.14 54.812 122.529 54.46 122.91C54.1227 123.291 53.778 123.621 53.426 123.9C53.0887 124.164 52.8247 124.355 52.634 124.472C52.458 124.575 52.458 124.56 52.634 124.428C52.3113 124.663 51.908 124.853 51.424 125C50.9547 125.147 50.5147 125.22 50.104 125.22ZM49.884 123.834C50.544 123.834 51.16 123.643 51.732 123.262C52.304 122.881 52.8027 122.389 53.228 121.788C53.668 121.187 54.0053 120.556 54.24 119.896C54.4893 119.236 54.614 118.627 54.614 118.07C54.614 117.791 54.5773 117.476 54.504 117.124C54.4453 116.757 54.328 116.405 54.152 116.068C53.976 115.731 53.734 115.452 53.426 115.232C53.1327 115.012 52.744 114.902 52.26 114.902C51.6293 114.902 51.028 115.107 50.456 115.518C49.884 115.914 49.3707 116.427 48.916 117.058C48.476 117.674 48.1313 118.312 47.882 118.972C47.6327 119.632 47.508 120.226 47.508 120.754C47.508 121.15 47.574 121.59 47.706 122.074C47.8527 122.558 48.0947 122.976 48.432 123.328C48.784 123.665 49.268 123.834 49.884 123.834ZM75.206 125.77C74.8833 125.77 74.5827 125.704 74.304 125.572C74.04 125.44 73.776 125.286 73.512 125.11C73.424 125.037 73.3287 124.971 73.226 124.912C73.138 124.839 73.0427 124.765 72.94 124.692C71.5613 123.739 70.4833 122.573 69.706 121.194C68.9287 119.815 68.54 118.334 68.54 116.75C68.54 115.474 68.7673 114.235 69.222 113.032C69.6913 111.815 70.3513 110.707 71.202 109.71C72.0673 108.698 73.0867 107.869 74.26 107.224C74.6707 106.989 75.0227 106.813 75.316 106.696C75.624 106.564 75.954 106.498 76.306 106.498C76.6433 106.498 76.8633 106.542 76.966 106.63C77.0833 106.718 77.142 106.821 77.142 106.938C77.142 107.246 76.8927 107.525 76.394 107.774C76.2767 107.847 76.152 107.913 76.02 107.972C75.888 108.031 75.756 108.089 75.624 108.148C75.5213 108.207 75.404 108.265 75.272 108.324C75.1547 108.383 75.0373 108.449 74.92 108.522C73.952 109.123 73.1013 109.871 72.368 110.766C71.6493 111.661 71.092 112.636 70.696 113.692C70.3 114.733 70.102 115.789 70.102 116.86C70.102 117.755 70.2633 118.664 70.586 119.588C70.9087 120.512 71.3927 121.311 72.038 121.986C72.17 122.103 72.346 122.265 72.566 122.47C72.786 122.675 72.9913 122.866 73.182 123.042C73.3873 123.218 73.512 123.328 73.556 123.372C73.6733 123.46 73.7907 123.548 73.908 123.636C74.04 123.709 74.1647 123.783 74.282 123.856C74.3993 123.915 74.524 123.981 74.656 124.054C74.788 124.127 74.9053 124.201 75.008 124.274C75.4627 124.582 75.69 124.89 75.69 125.198C75.69 125.389 75.6827 125.521 75.668 125.594C75.668 125.682 75.6313 125.741 75.558 125.77H75.206ZM82.5669 125.22C81.9069 125.22 81.2909 125.073 80.7189 124.78C80.1616 124.487 79.6922 124.091 79.3109 123.592C78.9296 123.093 78.6802 122.536 78.5629 121.92V120.754C78.5629 119.918 78.7169 119.075 79.0249 118.224C79.3329 117.373 79.7582 116.589 80.3009 115.87C80.8582 115.151 81.5109 114.579 82.2589 114.154C83.0216 113.714 83.8429 113.494 84.7229 113.494C85.2802 113.494 85.8156 113.589 86.3289 113.78C86.8569 113.971 87.3262 114.191 87.7369 114.44C87.8249 113.824 87.9349 113.399 88.0669 113.164C88.1989 112.929 88.4262 112.812 88.7489 112.812C88.9982 112.812 89.1742 112.893 89.2769 113.054C89.3796 113.201 89.4309 113.465 89.4309 113.846C89.4309 114.726 89.4089 115.591 89.3649 116.442C89.3356 117.278 89.3209 118.136 89.3209 119.016C89.3209 119.72 89.3576 120.446 89.4309 121.194C89.5189 121.942 89.5629 122.661 89.5629 123.35C89.5629 123.57 89.5629 123.79 89.5629 124.01C89.5776 124.23 89.5409 124.413 89.4529 124.56C89.3796 124.692 89.2182 124.758 88.9689 124.758C88.6169 124.758 88.3529 124.597 88.1769 124.274C88.0156 123.937 87.9056 123.533 87.8469 123.064C87.7882 122.595 87.7296 122.155 87.6709 121.744C87.5242 122.14 87.2749 122.529 86.9229 122.91C86.5856 123.291 86.2409 123.621 85.8889 123.9C85.5516 124.164 85.2876 124.355 85.0969 124.472C84.9209 124.575 84.9209 124.56 85.0969 124.428C84.7742 124.663 84.3709 124.853 83.8869 125C83.4176 125.147 82.9776 125.22 82.5669 125.22ZM82.3469 123.834C83.0069 123.834 83.6229 123.643 84.1949 123.262C84.7669 122.881 85.2656 122.389 85.6909 121.788C86.1309 121.187 86.4682 120.556 86.7029 119.896C86.9522 119.236 87.0769 118.627 87.0769 118.07C87.0769 117.791 87.0402 117.476 86.9669 117.124C86.9082 116.757 86.7909 116.405 86.6149 116.068C86.4389 115.731 86.1969 115.452 85.8889 115.232C85.5956 115.012 85.2069 114.902 84.7229 114.902C84.0922 114.902 83.4909 115.107 82.9189 115.518C82.3469 115.914 81.8336 116.427 81.3789 117.058C80.9389 117.674 80.5942 118.312 80.3449 118.972C80.0956 119.632 79.9709 120.226 79.9709 120.754C79.9709 121.15 80.0369 121.59 80.1689 122.074C80.3156 122.558 80.5576 122.976 80.8949 123.328C81.2469 123.665 81.7309 123.834 82.3469 123.834ZM96.3471 125.33C95.9511 125.33 95.4891 125.308 94.9611 125.264C94.4331 125.22 93.9125 125.125 93.3991 124.978C92.9005 124.831 92.4825 124.597 92.1451 124.274C91.8225 123.951 91.6611 123.519 91.6611 122.976C91.6611 122.272 91.9398 121.92 92.4971 121.92C92.6878 121.92 92.8345 121.986 92.9371 122.118L93.1351 122.382C93.1791 122.441 93.2158 122.507 93.2451 122.58C93.2891 122.639 93.3405 122.705 93.3991 122.778C93.6045 123.086 93.8978 123.372 94.2791 123.636C94.6605 123.9 95.2325 124.032 95.9951 124.032C96.4351 124.032 96.9191 123.966 97.4471 123.834C97.9751 123.687 98.4225 123.46 98.7891 123.152C99.1705 122.844 99.3611 122.433 99.3611 121.92C99.3611 121.495 99.2291 121.157 98.9651 120.908C98.7011 120.659 98.4078 120.461 98.0851 120.314C97.9385 120.241 97.7698 120.167 97.5791 120.094C97.4031 120.021 97.2125 119.955 97.0071 119.896C96.8165 119.837 96.6258 119.779 96.4351 119.72C96.2445 119.661 96.0465 119.603 95.8411 119.544C95.3131 119.368 94.8291 119.17 94.3891 118.95C93.9638 118.715 93.6191 118.422 93.3551 118.07C93.1058 117.718 92.9811 117.271 92.9811 116.728C92.9811 116.053 93.2011 115.489 93.6411 115.034C94.0958 114.579 94.6605 114.242 95.3351 114.022C96.0245 113.787 96.7211 113.67 97.4251 113.67C97.6891 113.67 97.9971 113.692 98.3491 113.736C98.7011 113.78 99.0458 113.861 99.3831 113.978C99.7205 114.095 99.9991 114.264 100.219 114.484C100.454 114.689 100.571 114.968 100.571 115.32C100.571 115.496 100.534 115.65 100.461 115.782C100.402 115.899 100.307 115.958 100.175 115.958C100.087 115.958 100.014 115.943 99.9551 115.914C99.3098 115.621 98.7671 115.408 98.3271 115.276C97.9018 115.144 97.5278 115.078 97.2051 115.078C97.0145 115.078 96.7651 115.107 96.4571 115.166C96.1638 115.21 95.8705 115.291 95.5771 115.408C95.2838 115.511 95.0345 115.665 94.8291 115.87C94.6385 116.061 94.5431 116.31 94.5431 116.618C94.5431 117.175 94.9685 117.637 95.8191 118.004C96.1271 118.121 96.4718 118.239 96.8531 118.356C97.2345 118.473 97.6305 118.613 98.0411 118.774C98.5691 118.965 99.0531 119.192 99.4931 119.456C99.9331 119.72 100.278 120.043 100.527 120.424C100.791 120.791 100.923 121.253 100.923 121.81C100.923 122.646 100.71 123.328 100.285 123.856C99.8598 124.369 99.3025 124.743 98.6131 124.978C97.9238 125.213 97.1685 125.33 96.3471 125.33ZM107.412 125.33C107.016 125.33 106.554 125.308 106.026 125.264C105.498 125.22 104.977 125.125 104.464 124.978C103.965 124.831 103.547 124.597 103.21 124.274C102.887 123.951 102.726 123.519 102.726 122.976C102.726 122.272 103.004 121.92 103.562 121.92C103.752 121.92 103.899 121.986 104.002 122.118L104.2 122.382C104.244 122.441 104.28 122.507 104.31 122.58C104.354 122.639 104.405 122.705 104.464 122.778C104.669 123.086 104.962 123.372 105.344 123.636C105.725 123.9 106.297 124.032 107.06 124.032C107.5 124.032 107.984 123.966 108.512 123.834C109.04 123.687 109.487 123.46 109.854 123.152C110.235 122.844 110.426 122.433 110.426 121.92C110.426 121.495 110.294 121.157 110.03 120.908C109.766 120.659 109.472 120.461 109.15 120.314C109.003 120.241 108.834 120.167 108.644 120.094C108.468 120.021 108.277 119.955 108.072 119.896C107.881 119.837 107.69 119.779 107.5 119.72C107.309 119.661 107.111 119.603 106.906 119.544C106.378 119.368 105.894 119.17 105.454 118.95C105.028 118.715 104.684 118.422 104.42 118.07C104.17 117.718 104.046 117.271 104.046 116.728C104.046 116.053 104.266 115.489 104.706 115.034C105.16 114.579 105.725 114.242 106.4 114.022C107.089 113.787 107.786 113.67 108.49 113.67C108.754 113.67 109.062 113.692 109.414 113.736C109.766 113.78 110.11 113.861 110.448 113.978C110.785 114.095 111.064 114.264 111.284 114.484C111.518 114.689 111.636 114.968 111.636 115.32C111.636 115.496 111.599 115.65 111.526 115.782C111.467 115.899 111.372 115.958 111.24 115.958C111.152 115.958 111.078 115.943 111.02 115.914C110.374 115.621 109.832 115.408 109.392 115.276C108.966 115.144 108.592 115.078 108.27 115.078C108.079 115.078 107.83 115.107 107.522 115.166C107.228 115.21 106.935 115.291 106.642 115.408C106.348 115.511 106.099 115.665 105.894 115.87C105.703 116.061 105.608 116.31 105.608 116.618C105.608 117.175 106.033 117.637 106.884 118.004C107.192 118.121 107.536 118.239 107.918 118.356C108.299 118.473 108.695 118.613 109.106 118.774C109.634 118.965 110.118 119.192 110.558 119.456C110.998 119.72 111.342 120.043 111.592 120.424C111.856 120.791 111.988 121.253 111.988 121.81C111.988 122.646 111.775 123.328 111.35 123.856C110.924 124.369 110.367 124.743 109.678 124.978C108.988 125.213 108.233 125.33 107.412 125.33ZM116.65 110.612C116.166 110.612 115.777 110.502 115.484 110.282C115.205 110.047 115.066 109.747 115.066 109.38C115.066 109.043 115.227 108.786 115.55 108.61C115.873 108.419 116.283 108.324 116.782 108.324C117.281 108.324 117.669 108.441 117.948 108.676C118.227 108.896 118.366 109.204 118.366 109.6C118.366 109.923 118.205 110.172 117.882 110.348C117.574 110.524 117.163 110.612 116.65 110.612ZM115.506 124.67C115.301 124.67 115.139 124.538 115.022 124.274C114.919 124.01 114.846 123.673 114.802 123.262C114.773 122.851 114.758 122.426 114.758 121.986C114.758 121.781 114.758 121.575 114.758 121.37C114.773 121.15 114.78 120.945 114.78 120.754C114.78 120.695 114.802 120.505 114.846 120.182C114.89 119.845 114.941 119.456 115 119.016C115.059 118.576 115.117 118.143 115.176 117.718C115.249 117.278 115.308 116.933 115.352 116.684C115.396 116.493 115.447 116.244 115.506 115.936C115.565 115.613 115.667 115.327 115.814 115.078C115.975 114.814 116.203 114.682 116.496 114.682C116.833 114.682 117.068 114.748 117.2 114.88C117.347 114.997 117.42 115.188 117.42 115.452C117.42 115.525 117.413 115.599 117.398 115.672C117.398 115.745 117.391 115.826 117.376 115.914C117.303 116.383 117.207 116.97 117.09 117.674C116.987 118.363 116.892 119.089 116.804 119.852C116.731 120.6 116.709 121.311 116.738 121.986C116.753 122.147 116.767 122.338 116.782 122.558C116.811 122.763 116.826 122.969 116.826 123.174C116.826 123.555 116.745 123.9 116.584 124.208C116.423 124.516 116.063 124.67 115.506 124.67ZM124.234 125.33C123.838 125.33 123.376 125.308 122.848 125.264C122.32 125.22 121.799 125.125 121.286 124.978C120.787 124.831 120.369 124.597 120.032 124.274C119.709 123.951 119.548 123.519 119.548 122.976C119.548 122.272 119.827 121.92 120.384 121.92C120.575 121.92 120.721 121.986 120.824 122.118L121.022 122.382C121.066 122.441 121.103 122.507 121.132 122.58C121.176 122.639 121.227 122.705 121.286 122.778C121.491 123.086 121.785 123.372 122.166 123.636C122.547 123.9 123.119 124.032 123.882 124.032C124.322 124.032 124.806 123.966 125.334 123.834C125.862 123.687 126.309 123.46 126.676 123.152C127.057 122.844 127.248 122.433 127.248 121.92C127.248 121.495 127.116 121.157 126.852 120.908C126.588 120.659 126.295 120.461 125.972 120.314C125.825 120.241 125.657 120.167 125.466 120.094C125.29 120.021 125.099 119.955 124.894 119.896C124.703 119.837 124.513 119.779 124.322 119.72C124.131 119.661 123.933 119.603 123.728 119.544C123.2 119.368 122.716 119.17 122.276 118.95C121.851 118.715 121.506 118.422 121.242 118.07C120.993 117.718 120.868 117.271 120.868 116.728C120.868 116.053 121.088 115.489 121.528 115.034C121.983 114.579 122.547 114.242 123.222 114.022C123.911 113.787 124.608 113.67 125.312 113.67C125.576 113.67 125.884 113.692 126.236 113.736C126.588 113.78 126.933 113.861 127.27 113.978C127.607 114.095 127.886 114.264 128.106 114.484C128.341 114.689 128.458 114.968 128.458 115.32C128.458 115.496 128.421 115.65 128.348 115.782C128.289 115.899 128.194 115.958 128.062 115.958C127.974 115.958 127.901 115.943 127.842 115.914C127.197 115.621 126.654 115.408 126.214 115.276C125.789 115.144 125.415 115.078 125.092 115.078C124.901 115.078 124.652 115.107 124.344 115.166C124.051 115.21 123.757 115.291 123.464 115.408C123.171 115.511 122.921 115.665 122.716 115.87C122.525 116.061 122.43 116.31 122.43 116.618C122.43 117.175 122.855 117.637 123.706 118.004C124.014 118.121 124.359 118.239 124.74 118.356C125.121 118.473 125.517 118.613 125.928 118.774C126.456 118.965 126.94 119.192 127.38 119.456C127.82 119.72 128.165 120.043 128.414 120.424C128.678 120.791 128.81 121.253 128.81 121.81C128.81 122.646 128.597 123.328 128.172 123.856C127.747 124.369 127.189 124.743 126.5 124.978C125.811 125.213 125.055 125.33 124.234 125.33ZM134.682 125.44C134.316 125.44 134.044 125.323 133.868 125.088C133.692 124.853 133.575 124.56 133.516 124.208C133.472 123.856 133.45 123.511 133.45 123.174C133.45 123.013 133.45 122.859 133.45 122.712C133.465 122.565 133.472 122.441 133.472 122.338C133.472 121.282 133.494 120.219 133.538 119.148C133.582 118.063 133.604 116.882 133.604 115.606C133.062 115.606 132.614 115.628 132.262 115.672C131.91 115.716 131.558 115.738 131.206 115.738C130.972 115.738 130.81 115.694 130.722 115.606C130.634 115.518 130.59 115.371 130.59 115.166C130.59 114.931 130.62 114.763 130.678 114.66C130.752 114.543 130.84 114.469 130.942 114.44L133.098 114C133.421 113.927 133.648 113.78 133.78 113.56C133.927 113.34 134.03 113.127 134.088 112.922C134.118 112.805 134.132 112.695 134.132 112.592C134.147 112.475 134.162 112.35 134.176 112.218C134.176 112.101 134.176 111.991 134.176 111.888C134.191 111.771 134.198 111.661 134.198 111.558C134.228 111.089 134.301 110.744 134.418 110.524C134.55 110.304 134.8 110.194 135.166 110.194C135.504 110.194 135.702 110.326 135.76 110.59C135.834 110.854 135.87 111.103 135.87 111.338C135.87 111.499 135.856 111.749 135.826 112.086C135.812 112.409 135.797 112.731 135.782 113.054C135.768 113.377 135.753 113.611 135.738 113.758H139.258C139.39 113.758 139.522 113.846 139.654 114.022C139.786 114.198 139.852 114.425 139.852 114.704C139.852 114.792 139.816 114.909 139.742 115.056C139.669 115.188 139.581 115.254 139.478 115.254C139.332 115.254 139.053 115.261 138.642 115.276C138.246 115.276 137.814 115.283 137.344 115.298C136.89 115.313 136.486 115.327 136.134 115.342C135.782 115.357 135.584 115.379 135.54 115.408C135.467 116.288 135.408 117.139 135.364 117.96C135.335 118.767 135.32 119.551 135.32 120.314C135.32 120.813 135.328 121.297 135.342 121.766C135.372 122.221 135.394 122.675 135.408 123.13C135.408 123.203 135.416 123.313 135.43 123.46C135.445 123.607 135.452 123.768 135.452 123.944C135.452 124.281 135.401 124.619 135.298 124.956C135.21 125.279 135.005 125.44 134.682 125.44ZM145.602 125.22C144.942 125.22 144.326 125.073 143.754 124.78C143.197 124.487 142.727 124.091 142.346 123.592C141.965 123.093 141.715 122.536 141.598 121.92V120.754C141.598 119.918 141.752 119.075 142.06 118.224C142.368 117.373 142.793 116.589 143.336 115.87C143.893 115.151 144.546 114.579 145.294 114.154C146.057 113.714 146.878 113.494 147.758 113.494C148.315 113.494 148.851 113.589 149.364 113.78C149.892 113.971 150.361 114.191 150.772 114.44C150.86 113.824 150.97 113.399 151.102 113.164C151.234 112.929 151.461 112.812 151.784 112.812C152.033 112.812 152.209 112.893 152.312 113.054C152.415 113.201 152.466 113.465 152.466 113.846C152.466 114.726 152.444 115.591 152.4 116.442C152.371 117.278 152.356 118.136 152.356 119.016C152.356 119.72 152.393 120.446 152.466 121.194C152.554 121.942 152.598 122.661 152.598 123.35C152.598 123.57 152.598 123.79 152.598 124.01C152.613 124.23 152.576 124.413 152.488 124.56C152.415 124.692 152.253 124.758 152.004 124.758C151.652 124.758 151.388 124.597 151.212 124.274C151.051 123.937 150.941 123.533 150.882 123.064C150.823 122.595 150.765 122.155 150.706 121.744C150.559 122.14 150.31 122.529 149.958 122.91C149.621 123.291 149.276 123.621 148.924 123.9C148.587 124.164 148.323 124.355 148.132 124.472C147.956 124.575 147.956 124.56 148.132 124.428C147.809 124.663 147.406 124.853 146.922 125C146.453 125.147 146.013 125.22 145.602 125.22ZM145.382 123.834C146.042 123.834 146.658 123.643 147.23 123.262C147.802 122.881 148.301 122.389 148.726 121.788C149.166 121.187 149.503 120.556 149.738 119.896C149.987 119.236 150.112 118.627 150.112 118.07C150.112 117.791 150.075 117.476 150.002 117.124C149.943 116.757 149.826 116.405 149.65 116.068C149.474 115.731 149.232 115.452 148.924 115.232C148.631 115.012 148.242 114.902 147.758 114.902C147.127 114.902 146.526 115.107 145.954 115.518C145.382 115.914 144.869 116.427 144.414 117.058C143.974 117.674 143.629 118.312 143.38 118.972C143.131 119.632 143.006 120.226 143.006 120.754C143.006 121.15 143.072 121.59 143.204 122.074C143.351 122.558 143.593 122.976 143.93 123.328C144.282 123.665 144.766 123.834 145.382 123.834ZM156.368 124.56C156.148 124.56 155.987 124.509 155.884 124.406C155.782 124.303 155.708 124.157 155.664 123.966C155.591 123.717 155.554 123.453 155.554 123.174V122.316C155.554 121.847 155.569 121.443 155.598 121.106C155.628 120.754 155.642 120.373 155.642 119.962C155.642 119.815 155.635 119.661 155.62 119.5C155.62 119.324 155.613 119.141 155.598 118.95C155.54 118.231 155.459 117.476 155.356 116.684C155.254 115.892 155.202 115.173 155.202 114.528V113.67C155.29 113.465 155.371 113.34 155.444 113.296C155.532 113.252 155.65 113.23 155.796 113.23C156.148 113.23 156.398 113.369 156.544 113.648C156.691 113.912 156.786 114.227 156.83 114.594C156.889 114.946 156.926 115.254 156.94 115.518C156.955 115.621 156.977 115.841 157.006 116.178C157.05 116.515 157.094 116.897 157.138 117.322C157.182 117.733 157.219 118.129 157.248 118.51C157.292 118.891 157.314 119.185 157.314 119.39C157.549 118.906 157.828 118.407 158.15 117.894C158.473 117.366 158.796 116.875 159.118 116.42C159.456 115.965 159.756 115.599 160.02 115.32C160.402 114.895 160.849 114.565 161.362 114.33C161.89 114.081 162.411 113.956 162.924 113.956C163.526 113.956 164.054 114.125 164.508 114.462C164.963 114.799 165.352 115.239 165.674 115.782C166.012 116.325 166.29 116.911 166.51 117.542C166.73 118.158 166.906 118.759 167.038 119.346C167.229 120.123 167.368 120.805 167.456 121.392C167.559 121.979 167.647 122.646 167.72 123.394C167.72 123.717 167.654 123.973 167.522 124.164C167.39 124.355 167.229 124.45 167.038 124.45C166.76 124.45 166.562 124.391 166.444 124.274C166.327 124.142 166.246 123.937 166.202 123.658C166.1 123.101 165.997 122.47 165.894 121.766C165.806 121.062 165.682 120.351 165.52 119.632C165.359 118.899 165.124 118.231 164.816 117.63C164.699 117.351 164.552 117.065 164.376 116.772C164.2 116.479 163.988 116.229 163.738 116.024C163.489 115.819 163.181 115.716 162.814 115.716C162.33 115.716 161.839 115.929 161.34 116.354C160.856 116.779 160.394 117.329 159.954 118.004C159.514 118.679 159.111 119.405 158.744 120.182C158.378 120.945 158.07 121.671 157.82 122.36C157.747 122.595 157.652 122.859 157.534 123.152C157.432 123.431 157.322 123.695 157.204 123.944C157.102 124.149 156.984 124.303 156.852 124.406C156.735 124.509 156.574 124.56 156.368 124.56ZM173.591 125.44C173.224 125.44 172.953 125.323 172.777 125.088C172.601 124.853 172.483 124.56 172.425 124.208C172.381 123.856 172.359 123.511 172.359 123.174C172.359 123.013 172.359 122.859 172.359 122.712C172.373 122.565 172.381 122.441 172.381 122.338C172.381 121.282 172.403 120.219 172.447 119.148C172.491 118.063 172.513 116.882 172.513 115.606C171.97 115.606 171.523 115.628 171.171 115.672C170.819 115.716 170.467 115.738 170.115 115.738C169.88 115.738 169.719 115.694 169.631 115.606C169.543 115.518 169.499 115.371 169.499 115.166C169.499 114.931 169.528 114.763 169.587 114.66C169.66 114.543 169.748 114.469 169.851 114.44L172.007 114C172.329 113.927 172.557 113.78 172.689 113.56C172.835 113.34 172.938 113.127 172.997 112.922C173.026 112.805 173.041 112.695 173.041 112.592C173.055 112.475 173.07 112.35 173.085 112.218C173.085 112.101 173.085 111.991 173.085 111.888C173.099 111.771 173.107 111.661 173.107 111.558C173.136 111.089 173.209 110.744 173.327 110.524C173.459 110.304 173.708 110.194 174.075 110.194C174.412 110.194 174.61 110.326 174.669 110.59C174.742 110.854 174.779 111.103 174.779 111.338C174.779 111.499 174.764 111.749 174.735 112.086C174.72 112.409 174.705 112.731 174.691 113.054C174.676 113.377 174.661 113.611 174.647 113.758H178.167C178.299 113.758 178.431 113.846 178.563 114.022C178.695 114.198 178.761 114.425 178.761 114.704C178.761 114.792 178.724 114.909 178.651 115.056C178.577 115.188 178.489 115.254 178.387 115.254C178.24 115.254 177.961 115.261 177.551 115.276C177.155 115.276 176.722 115.283 176.253 115.298C175.798 115.313 175.395 115.327 175.043 115.342C174.691 115.357 174.493 115.379 174.449 115.408C174.375 116.288 174.317 117.139 174.273 117.96C174.243 118.767 174.229 119.551 174.229 120.314C174.229 120.813 174.236 121.297 174.251 121.766C174.28 122.221 174.302 122.675 174.317 123.13C174.317 123.203 174.324 123.313 174.339 123.46C174.353 123.607 174.361 123.768 174.361 123.944C174.361 124.281 174.309 124.619 174.207 124.956C174.119 125.279 173.913 125.44 173.591 125.44ZM180.352 126.188C180.118 126.188 179.956 126.151 179.868 126.078C179.78 126.005 179.736 125.887 179.736 125.726C179.736 125.462 179.92 125.22 180.286 125C180.389 124.927 180.499 124.868 180.616 124.824C180.734 124.765 180.844 124.714 180.946 124.67C181.064 124.597 181.188 124.538 181.32 124.494C181.452 124.435 181.57 124.377 181.672 124.318C182.816 123.702 183.726 122.903 184.4 121.92C185.075 120.937 185.559 119.874 185.852 118.73C186.146 117.571 186.292 116.449 186.292 115.364C186.292 114.367 186.153 113.399 185.874 112.46C185.61 111.521 185.156 110.649 184.51 109.842C184.408 109.725 184.276 109.593 184.114 109.446C183.953 109.299 183.784 109.153 183.608 109.006C183.418 108.845 183.212 108.683 182.992 108.522C182.787 108.361 182.582 108.199 182.376 108.038C182.039 107.759 181.716 107.517 181.408 107.312C181.115 107.092 180.968 106.931 180.968 106.828C180.968 106.579 181.005 106.425 181.078 106.366C181.152 106.293 181.35 106.256 181.672 106.256C181.907 106.256 182.149 106.315 182.398 106.432C182.662 106.535 182.926 106.681 183.19 106.872C184.76 107.943 185.97 109.167 186.82 110.546C187.686 111.925 188.118 113.531 188.118 115.364C188.118 116.611 187.906 117.835 187.48 119.038C187.055 120.241 186.446 121.363 185.654 122.404C184.877 123.431 183.938 124.303 182.838 125.022C182.633 125.154 182.384 125.308 182.09 125.484C181.812 125.675 181.518 125.836 181.21 125.968C180.902 126.115 180.616 126.188 180.352 126.188Z" fill="black"/>
</svg>
