<svg width="343" height="62" viewBox="0 0 343 62" fill="none" xmlns="http://www.w3.org/2000/svg">
<path d="M48.56 47.768C46.9813 47.768 45.7013 47.2133 44.72 46.104C43.7387 44.952 43.248 43.416 43.248 41.496C43.248 39.5333 44.1227 34.6907 45.872 26.968C47.664 19.2453 48.56 14.3173 48.56 12.184C48.56 10.0507 47.728 8.984 46.064 8.984C43.76 8.984 41.2213 10.008 38.448 12.056C38.1493 14.36 37.2747 18.392 35.824 24.152C34.3733 29.8693 33.392 34.1147 32.88 36.888C32.4107 39.6187 32.176 41.7307 32.176 43.224C32.176 44.7173 32.1973 45.6347 32.24 45.976C30.576 46.8293 27.6107 47.256 23.344 47.256H22.128C22.128 43.672 23.1307 37.5707 25.136 28.952C27.184 20.1627 28.208 14.6373 28.208 12.376C28.208 10.1147 27.4187 8.984 25.84 8.984C23.536 8.984 20.848 10.0933 17.776 12.312C17.3067 14.6587 16.432 18.4773 15.152 23.768C12.2933 35.8853 10.864 43.288 10.864 45.976C9.2 46.8293 6.256 47.256 2.032 47.256H0.816C0.986667 45.336 2.11733 39.704 4.208 30.36C6.29867 20.9733 7.6 13.9547 8.112 9.304C8.112 8.62133 7.87733 7.81067 7.408 6.872C6.98133 5.89066 6.53333 5.10133 6.064 4.504L5.424 3.608L5.616 2.648C8.00533 1.92266 12.1227 1.56 17.968 1.56C18.5227 2.584 18.8 3.88533 18.8 5.464C18.8 5.80533 18.7147 6.70133 18.544 8.152C23.4507 3.75733 27.8453 1.56 31.728 1.56C33.4773 1.56 34.9493 2.15733 36.144 3.352C37.3387 4.54666 38.1067 6.104 38.448 8.024C43.5253 3.71466 47.8347 1.56 51.376 1.56C53.5947 1.56 55.3867 2.28533 56.752 3.736C58.1173 5.18666 58.8 7.21333 58.8 9.816C58.8 12.4187 57.8827 17.3893 56.048 24.728C54.256 32.024 53.36 37.1227 53.36 40.024C53.36 41.2613 53.5733 41.88 54 41.88C54.384 41.88 55.4293 41.4533 57.136 40.6L58.032 40.216L59.312 42.584C57.4773 44.1627 55.6213 45.4213 53.744 46.36C51.9093 47.2987 50.1813 47.768 48.56 47.768ZM12.592 22.04C12.5493 22.1253 12.528 22.232 12.528 22.36L12.592 22.04ZM70.6865 53.912C69.2785 54.7653 68.5745 55.5973 68.5745 56.408C68.5745 57.2187 69.0225 57.624 69.9185 57.624C70.8572 57.624 71.9025 57.176 73.0545 56.28C74.2065 55.4267 75.1665 54.0187 75.9345 52.056C73.8865 52.44 72.1372 53.0587 70.6865 53.912ZM67.6145 47.256C64.0305 47.256 62.2385 45.2933 62.2385 41.368C62.2385 40.4293 62.6652 37.72 63.5185 33.24C64.3718 28.76 64.7985 25.0267 64.7985 22.04C64.7985 21.4 64.7132 20.8027 64.5425 20.248C66.8465 19.352 70.0038 18.904 74.0145 18.904C74.2278 19.5013 74.3345 20.5253 74.3345 21.976C74.3345 23.4267 73.8652 26.4347 72.9265 31C71.9878 35.5653 71.5185 38.5093 71.5185 39.832C71.5185 41.1547 72.0732 41.816 73.1825 41.816C74.5052 41.816 76.1052 41.1547 77.9825 39.832C78.1958 37.3147 79.0492 30.68 80.5425 19.928C82.0358 19.3307 84.7238 19.032 88.6065 19.032H89.8225C89.0118 22.232 88.2225 26.84 87.4545 32.856C86.6865 38.872 86.0678 43.0533 85.5985 45.4C84.7025 50.0933 83.0385 53.912 80.6065 56.856C78.2172 59.8427 75.0812 61.336 71.1985 61.336C69.6625 61.336 68.2545 60.9307 66.9745 60.12C65.7372 59.3093 65.1185 58.264 65.1185 56.984C65.1185 55.2773 66.1638 53.72 68.2545 52.312C70.3452 50.904 73.1612 49.816 76.7025 49.048C77.0865 47.1707 77.3852 45.3573 77.5985 43.608C74.1425 46.04 70.8145 47.256 67.6145 47.256ZM119.149 47.768C115.181 47.768 111.896 46.168 109.293 42.968C106.69 39.7253 105.389 35.5013 105.389 30.296C105.389 25.0907 106.285 20.3547 108.077 16.088C109.869 11.7787 112.429 8.28 115.757 5.592C119.085 2.904 122.626 1.56 126.381 1.56C130.178 1.56 133.229 2.41333 135.533 4.12C137.88 5.82666 139.053 7.87466 139.053 10.264C139.053 12.6107 138.349 14.616 136.941 16.28C135.576 16.28 134.04 15.9813 132.333 15.384C130.626 14.7867 129.346 14.0613 128.493 13.208L129.709 6.744C128.685 6.104 127.341 5.784 125.677 5.784C123.074 5.784 120.77 8.024 118.765 12.504C116.76 16.9413 115.757 22.424 115.757 28.952C115.757 33.2613 116.461 36.3973 117.869 38.36C119.32 40.28 121.069 41.24 123.117 41.24C126.488 41.24 129.73 39.6613 132.845 36.504L135.469 38.872C135 39.5547 134.146 40.4933 132.909 41.688C131.672 42.8827 130.456 43.8853 129.261 44.696C128.066 45.464 126.552 46.168 124.717 46.808C122.882 47.448 121.026 47.768 119.149 47.768ZM147.693 47.768C144.749 47.768 142.445 46.744 140.781 44.696C139.117 42.6053 138.285 39.704 138.285 35.992C138.285 31.256 139.543 27.1813 142.061 23.768C144.621 20.3547 148.141 18.648 152.621 18.648L154.925 18.776C155.65 18.392 156.461 18.2 157.357 18.2C160.727 18.2 162.413 21.3787 162.413 27.736C164.162 27.6507 165.933 27.416 167.725 27.032L168.749 26.776L169.132 29.272C167.725 29.8693 165.826 30.4027 163.437 30.872L162.157 31.128C161.346 35.608 159.703 39.512 157.229 42.84C154.754 46.1253 151.575 47.768 147.693 47.768ZM151.149 42.264C152.941 42.264 154.541 41.112 155.949 38.808C157.399 36.504 158.402 34.072 158.957 31.512C154.391 31.512 152.109 29.8053 152.109 26.392C152.109 25.0267 152.386 23.7467 152.941 22.552L153.26 21.912C153.09 21.8267 152.877 21.784 152.621 21.784C152.365 21.784 152.173 21.8267 152.045 21.912C150.978 22.5947 149.975 24.1947 149.037 26.712C148.098 29.2293 147.629 32.1093 147.629 35.352C147.629 39.96 148.802 42.264 151.149 42.264ZM169.848 47.768C168.397 47.768 167.181 47.2773 166.2 46.296C165.261 45.3147 164.792 43.9493 164.792 42.2C164.792 40.408 165.837 34.7547 167.928 25.24C170.061 15.6827 171.128 8.792 171.128 4.568L170.744 1.752C174.072 0.599998 177.187 0.0239983 180.088 0.0239983C180.515 0.621332 180.728 1.66666 180.728 3.16C180.728 6.57333 179.64 13.1867 177.464 23C175.331 32.7707 174.264 38.4667 174.264 40.088C174.264 41.6667 174.456 42.456 174.84 42.456L179.32 40.856L180.472 43.096C179.021 44.248 177.251 45.3147 175.16 46.296C173.112 47.2773 171.341 47.768 169.848 47.768ZM186.848 47.768C185.397 47.768 184.181 47.2773 183.2 46.296C182.261 45.3147 181.792 43.9493 181.792 42.2C181.792 40.408 182.837 34.7547 184.928 25.24C187.061 15.6827 188.128 8.792 188.128 4.568L187.744 1.752C191.072 0.599998 194.187 0.0239983 197.088 0.0239983C197.515 0.621332 197.728 1.66666 197.728 3.16C197.728 6.57333 196.64 13.1867 194.464 23C192.331 32.7707 191.264 38.4667 191.264 40.088C191.264 41.6667 191.456 42.456 191.84 42.456L196.32 40.856L197.472 43.096C196.021 44.248 194.251 45.3147 192.16 46.296C190.112 47.2773 188.341 47.768 186.848 47.768ZM198.664 35.928C198.664 30.5947 200.264 26.392 203.464 23.32C206.707 20.2053 210.376 18.648 214.472 18.648C216.989 18.648 219.059 19.2667 220.68 20.504C222.301 21.7413 223.112 23.4053 223.112 25.496C223.112 27.544 222.579 29.272 221.512 30.68C220.488 32.088 219.229 33.176 217.736 33.944C214.707 35.4373 211.933 36.376 209.416 36.76L207.88 36.952C208.179 40.9627 209.821 42.968 212.808 42.968C213.832 42.968 214.92 42.712 216.072 42.2C217.224 41.688 218.12 41.176 218.76 40.664L219.72 39.896L221.256 41.944C220.915 42.4133 220.232 43.032 219.208 43.8C218.184 44.568 217.224 45.208 216.328 45.72C213.853 47.0853 211.144 47.768 208.2 47.768C205.256 47.768 202.931 46.7227 201.224 44.632C199.517 42.5413 198.664 39.64 198.664 35.928ZM207.816 33.816C209.992 33.432 211.72 32.5147 213 31.064C214.28 29.6133 214.92 27.736 214.92 25.432C214.92 23.128 214.237 21.976 212.872 21.976C211.251 21.976 209.992 23.3627 209.096 26.136C208.243 28.8667 207.816 31.4267 207.816 33.816ZM239.203 21.848C237.496 21.848 236.131 23.2773 235.107 26.136C234.083 28.952 233.571 31.9813 233.571 35.224C233.571 40.344 235.149 42.904 238.307 42.904C239.331 42.904 240.419 42.6693 241.571 42.2C242.723 41.688 243.64 41.1973 244.323 40.728L245.283 39.96L246.755 41.944C246.413 42.4133 245.731 43.032 244.707 43.8C243.683 44.568 242.723 45.208 241.827 45.72C240.931 46.232 239.779 46.7013 238.371 47.128C236.963 47.5547 235.576 47.768 234.211 47.768C230.883 47.768 228.387 46.68 226.723 44.504C225.059 42.328 224.227 39.4053 224.227 35.736C224.227 30.6587 225.613 26.5413 228.387 23.384C231.203 20.2267 234.808 18.648 239.203 18.648C242.061 18.648 244.323 19.3093 245.987 20.632C247.693 21.912 248.547 23.512 248.547 25.432C248.547 27.3093 247.949 28.9307 246.755 30.296C245.688 30.296 244.451 30.0613 243.043 29.592C241.635 29.1227 240.568 28.5467 239.843 27.864L240.803 22.232C240.419 21.976 239.885 21.848 239.203 21.848ZM269.952 19.416C269.867 20.4827 269.504 21.72 268.864 23.128C267.243 22.9573 265.707 22.872 264.256 22.872H263.104C261.141 32.3867 260.16 38.3173 260.16 40.664C260.16 41.9013 260.416 42.52 260.928 42.52C261.483 42.52 262.912 41.9867 265.216 40.92L266.368 43.032C262.571 46.1893 259.051 47.768 255.808 47.768C254.315 47.768 253.077 47.2987 252.096 46.36C251.157 45.4213 250.688 44.184 250.688 42.648C250.688 41.0693 250.859 39.2987 251.2 37.336C251.584 35.3733 252.096 32.984 252.736 30.168C253.376 27.3093 253.845 25.0053 254.144 23.256C252.565 23.384 251.392 23.512 250.624 23.64C250.539 23.128 250.496 22.4453 250.496 21.592C250.496 20.696 250.56 19.9707 250.688 19.416H254.72C255.061 17.112 255.232 14.936 255.232 12.888L255.168 10.904V10.712C258.496 9.56 261.632 8.984 264.576 8.984C264.747 9.83733 264.832 10.904 264.832 12.184C264.832 13.464 264.469 15.8747 263.744 19.416H269.952ZM282.668 22.616C282.668 24.408 282.092 27.5013 280.94 31.896C279.788 36.248 279.212 39.1067 279.212 40.472C279.212 41.7947 279.404 42.456 279.788 42.456C280.044 42.456 281.025 42.0507 282.732 41.24L283.5 40.856L284.588 43.096C284.204 43.4373 283.692 43.864 283.052 44.376C282.412 44.888 281.217 45.592 279.468 46.488C277.719 47.3413 276.097 47.768 274.604 47.768C273.111 47.768 271.937 47.32 271.084 46.424C270.231 45.4853 269.804 44.248 269.804 42.712C269.804 41.1333 270.337 38.36 271.404 34.392C272.471 30.3813 273.004 27.7787 273.004 26.584C273.004 24.792 272.449 23.1067 271.34 21.528L270.764 20.76L270.828 19.928C273.089 19.288 276.759 18.968 281.836 18.968C282.391 19.608 282.668 20.824 282.668 22.616ZM275.372 11.992C274.519 11.1387 274.092 10.008 274.092 8.6C274.092 7.192 274.668 5.95466 275.82 4.888C277.015 3.82133 278.38 3.288 279.916 3.288C281.452 3.288 282.647 3.71466 283.5 4.568C284.353 5.42133 284.78 6.552 284.78 7.96C284.78 9.32533 284.161 10.5413 282.924 11.608C281.729 12.6747 280.385 13.208 278.892 13.208C277.399 13.208 276.225 12.8027 275.372 11.992ZM295.818 47.768C292.874 47.768 290.57 46.744 288.906 44.696C287.242 42.6053 286.41 39.704 286.41 35.992C286.41 31.256 287.668 27.1813 290.186 23.768C292.746 20.3547 296.266 18.648 300.746 18.648L303.05 18.776C303.775 18.392 304.586 18.2 305.482 18.2C308.852 18.2 310.538 21.3787 310.538 27.736C312.287 27.6507 314.058 27.416 315.85 27.032L316.874 26.776L317.257 29.272C315.85 29.8693 313.951 30.4027 311.562 30.872L310.282 31.128C309.471 35.608 307.828 39.512 305.354 42.84C302.879 46.1253 299.7 47.768 295.818 47.768ZM299.274 42.264C301.066 42.264 302.666 41.112 304.074 38.808C305.524 36.504 306.527 34.072 307.082 31.512C302.516 31.512 300.234 29.8053 300.234 26.392C300.234 25.0267 300.511 23.7467 301.066 22.552L301.385 21.912C301.215 21.8267 301.002 21.784 300.746 21.784C300.49 21.784 300.298 21.8267 300.17 21.912C299.103 22.5947 298.1 24.1947 297.162 26.712C296.223 29.2293 295.754 32.1093 295.754 35.352C295.754 39.96 296.927 42.264 299.274 42.264ZM313.836 47.192H312.62C312.62 45.1867 313.217 41.3467 314.411 35.672C315.649 29.9973 316.268 26.776 316.268 26.008C316.268 24.6 315.67 23.1067 314.476 21.528L313.9 20.76L313.964 19.928C316.268 19.288 319.958 18.968 325.036 18.968C325.59 19.6933 325.889 21.016 325.932 22.936C329.644 20.0773 332.78 18.648 335.34 18.648C336.876 18.648 338.092 19.1813 338.988 20.248C339.926 21.3147 340.396 22.6587 340.396 24.28C340.396 25.8587 339.905 28.6107 338.924 32.536C337.942 36.4613 337.452 39.1067 337.452 40.472C337.452 41.7947 337.622 42.456 337.964 42.456C338.22 42.456 339.116 42.0507 340.652 41.24L341.42 40.856L342.572 43.096C342.188 43.4373 341.676 43.864 341.036 44.376C340.396 44.888 339.201 45.592 337.452 46.488C335.745 47.3413 334.209 47.768 332.844 47.768C329.729 47.768 328.172 45.9973 328.172 42.456C328.172 40.9627 328.641 38.2107 329.58 34.2C330.561 30.1893 331.052 27.608 331.052 26.456C331.052 25.304 330.689 24.728 329.964 24.728C328.726 24.728 327.212 25.2613 325.42 26.328C325.292 27.0533 324.865 28.9733 324.14 32.088C322.646 38.7867 321.9 43.5227 321.9 46.296C320.406 46.8933 317.718 47.192 313.836 47.192Z" fill="white"/>
</svg>
